# AST/ASF file generated using VICON BodyLanguage
# -----------------------------------------------
:version 1.10
:name VICON
:units
  mass 1.0
  length 0.45
  angle deg
:documentation
   .ast/.asf automatically generated from VICON data using
   VICON BodyBuilder and BodyLanguage model FoxedUp or BRILLIANT.MOD
:root
   order TX TY TZ RX RY RZ
   axis XYZ
   position 0 0 0  
   orientation 0 0 0 
:bonedata
  begin
     id 1 
     name lhipjoint
     direction 0.537252 -0.787203 0.302774 
     length 2.29576 
     axis 0 0 0  XYZ
  end
  begin
     id 2 
     name lfemur
     direction 0.34202 -0.939693 0  
     length 7.31114  
     axis 0 0 20  XYZ
    dof rx ry rz
    limits (-160.0 20.0)
           (-70.0 70.0)
           (-60.0 70.0)
  end
  begin
     id 3 
     name ltibia
     direction 0.34202 -0.939693 0   
     length 8.36008   
     axis 0 0 20   XYZ
    dof rx
    limits (-10.0 170.0)
  end
  begin
     id 4 
     name lfoot
     direction 0.0969116 -0.266263 0.959016   
     length 2.16704   
     axis -90 7.62852e-016 20   XYZ
    dof rx rz
    limits (-45.0 90.0)
           (-70.0 20.0)
  end
  begin
     id 5 
     name ltoes
     direction 1.53563e-011 -4.21779e-011 1   
     length 1.08338   
     axis -90 7.62852e-016 20   XYZ
    dof rx
    limits (-90.0 20.0)
  end
  begin
     id 6 
     name rhipjoint
     direction -0.588228 -0.754791 0.290308   
     length 2.39434  
     axis 0 0 0  XYZ 
  end
  begin
     id 7 
     name rfemur
     direction -0.34202 -0.939693 0   
     length 7.45207   
     axis 0 0 -20   XYZ
    dof rx ry rz
    limits (-160.0 20.0)
           (-70.0 70.0)
           (-70.0 60.0)
  end
  begin
     id 8 
     name rtibia
     direction -0.34202 -0.939693 0   
     length 8.03565   
     axis 0 0 -20   XYZ
    dof rx
    limits (-10.0 170.0)
 end
 begin
     id 9 
     name rfoot
     direction -0.107009 -0.294004 0.949795   
     length 2.11509  
     axis -90 -7.62852e-016 -20   XYZ
    dof rx rz
    limits (-45.0 90.0)
           (-20.0 70.0)
  end
  begin
     id 10 
     name rtoes
     direction -1.53533e-011 -4.22004e-011 1   
     length 1.05493   
     axis -90 -7.62852e-016 -20   XYZ
    dof rx
    limits (-90.0 20.0)
  end
  begin
     id 11 
     name lowerback
     direction -0.0115208 0.997969 -0.0626515   
     length 2.03153   
     axis 0 0 0   XYZ
    dof rx ry rz
    limits (-20.0 45.0)
           (-30.0 30.0)
           (-30.0 30.0)
  end
  begin
     id 12 
     name upperback
     direction -0.00423475 0.999974 -0.00583614   
     length 2.03619   
     axis 0 0 0   XYZ
    dof rx ry rz
    limits (-20.0 45.0)
           (-30.0 30.0)
           (-30.0 30.0)
  end
  begin
     id 13 
     name thorax
     direction 0.00289429 0.999728 0.0231573   
     length 2.03921   
     axis 0 0 0   XYZ
    dof rx ry rz
    limits (-20.0 45.0)
           (-30.0 30.0)
           (-30.0 30.0)
  end
  begin
     id 14 
     name lowerneck
     direction 0.0188995 0.987777 0.154721   
     length 1.78836   
     axis 0 0 0   XYZ
    dof rx ry rz
    limits (-20.0 45.0)
           (-30.0 30.0)
           (-30.0 30.0)
  end
  begin
     id 15 
     name upperneck
     direction -0.00612612 0.992995 -0.118   
     length 1.81789   
     axis 0 0 0   XYZ
    dof rx ry rz
    limits (-20.0 45.0)
           (-30.0 30.0)
           (-30.0 30.0)
  end
  begin
     id 16
     name head
     direction -0.00420226 0.998397 -0.0564482  
     length 1.82234  
     axis 0 0 0   XYZ
    dof rx ry rz
    limits (-20.0 45.0)
           (-30.0 30.0)
           (-30.0 30.0)
  end
  begin
     id 17 
     name lclavicle
     direction 0.916488 0.396539 0.0529676  
     length 3.51732  
     axis 0 0 0   XYZ
    dof ry rz
    limits (-20.0 10.0)
           (0.0 20.0)
  end
  begin
     id 18 
     name lhumerus
     direction 1 -4.4896e-011 8.36962e-028   
     length 5.45077   
     axis 180 -30 -90   XYZ
    dof rx ry rz
    limits (-60.0 90.0)
           (-90.0 90.0)
           (-90.0 90.0)
  end
  begin
     id 19
     name lradius
     direction 1 -4.48962e-011 3.01407e-027   
     length 3.05488   
     axis 180 -30 -90   XYZ
    dof rx
    limits (-10.0 170.0)
  end
  begin
     id 20
     name lwrist
     direction 1 -4.49002e-011 4.72961e-027   
     length 1.52744   
     axis -2.72261e-015 90 90   XYZ
    dof ry
    limits (-180.0 0.0)
 end
  begin
     id 21 
     name lhand
     direction 1 -4.4899e-011 9.45681e-027   
     length 0.638818   
     axis -6.0311e-015 90 90   XYZ
    dof rx rz
    limits (-90.0 90.0)
           (-45.0 45.0)
  end
  begin
     id 22 
     name lfingers
     direction 1 -4.48871e-011 1.88632e-026   
     length 0.515032   
     axis -1.20625e-014 90 90   XYZ
    dof rx
    limits (0.0 90.0)
  end
  begin
     id 23
     name lthumb
     direction 0.707107 -6.34964e-011 0.707107   
     length 0.739485   
     axis -90 45 6.32835e-014   XYZ
    dof rx rz
    limits (-45.0 45.0)
           (-45.0 45.0)
  end
  begin
     id 24 
     name rclavicle
     direction -0.949427 0.303202 0.0815894   
     length 3.76167  
     axis 0 0 0   XYZ 
    dof ry rz
    limits (-10.0 20.0)
           (-20.0 0.0)
  end
  begin
     id 25 
     name rhumerus
     direction -1 -4.48971e-011 -6.43969e-018  
     length 4.88702   
     axis 180 30 90   XYZ
    dof rx ry rz
    limits (-90.0 60.0)
           (-90.0 90.0)
           (-90.0 90.0)
  end
  begin
     id 26 
     name rradius
     direction -1 -4.48987e-011 5.46662e-027   
     length 3.22603   
     axis 180 30 90   XYZ
    dof rx
    limits (-10.0 170.0)
  end
  begin
     id 27 
     name rwrist
     direction -1 -4.48956e-011 4.72476e-027   
     length 1.61302   
     axis -2.72261e-015 -90 -90   XYZ
    dof ry
    limits (-180.0 0.0)
  end
  begin
     id 28
     name rhand
     direction -1 -4.4889e-011 9.43571e-027   
     length 0.716293   
     axis -6.0311e-015 -90 -90   XYZ
    dof rx rz
    limits (-90.0 90.0)
           (-45.0 45.0)
  end
  begin
     id 29
     name rfingers
     direction -1 -4.48887e-011 1.88701e-026   
     length 0.577494   
     axis -1.20625e-014 -90 -90   XYZ
    dof rx
    limits (0.0 90.0)
  end
  begin
     id 30
     name rthumb
     direction -0.707107 -6.34825e-011 0.707107   
     length 0.829169   
     axis -90 -45 -6.32835e-014   XYZ
    dof rx rz
    limits (-45.0 45.0)
           (-45.0 45.0)
  end
:hierarchy
  begin
    root lhipjoint rhipjoint lowerback
    lhipjoint lfemur
    lfemur ltibia
    ltibia lfoot
    lfoot ltoes
    rhipjoint rfemur
    rfemur rtibia
    rtibia rfoot
    rfoot rtoes
    lowerback upperback
    upperback thorax
    thorax lowerneck lclavicle rclavicle
    lowerneck upperneck
    upperneck head
    lclavicle lhumerus
    lhumerus lradius
    lradius lwrist
    lwrist lhand lthumb
    lhand lfingers
    rclavicle rhumerus
    rhumerus rradius
    rradius rwrist
    rwrist rhand rthumb
    rhand rfingers
  end

#!OML:ASF F:\VICON\USERDATA\INSTALL\rory3\rory3.ASF
:FULLY-SPECIFIED
:DEGREES
2589
root 1.72424 18.5125 0.228903 -346.195 57.383 -359.035
lowerback -10.5956 -3.73953 -3.26266
upperback -4.16899 -4.50169 -1.32873
thorax 1.7233 -2.18663 -0.0861324
lowerneck -14.872 -9.75594 -3.86013
upperneck 8.59819 -13.0114 5.43441
head 5.60898 -6.08691 1.08059
rclavicle 8.84095e-014 3.18055e-014
rhumerus 16.7658 -3.07816 -33.2921
rradius 123.111
rwrist 144.13
rhand -25.3202 -12.6359
rfingers 7.12502
rthumb 1.20228 -42.6123
lclavicle 8.84095e-014 3.18055e-014
lhumerus -58.4636 -26.3918 97.6382
lradius 60.4902
lwrist 17.0979
lhand -10.0251 28.8358
lfingers 7.12502
lthumb 15.9595 58.1983
rfemur -14.5981 23.7943 8.65716
rtibia -1.64991e-014
rfoot -0.353932 5.08711
rtoes 7.94903
lfemur -11.3712 14.5835 -24.488
ltibia 15.7907
lfoot -18.7859 19.2182
ltoes -21.5783
2590
root 1.72319 18.5138 0.225148 -346.23 57.439 -359.077
lowerback -10.6204 -3.76435 -3.30859
upperback -4.15305 -4.53084 -1.25815
thorax 1.76326 -2.20113 0.00598154
lowerneck -14.7549 -9.72962 -3.96622
upperneck 8.39104 -12.9414 5.40441
head 5.52599 -6.06558 1.10527
rclavicle -1.20265e-013 5.56597e-015
rhumerus 15.8793 -0.442985 -33.5338
rradius 124.031
rwrist 147.035
rhand -24.6287 -13.276
rfingers 7.12502
rthumb 1.87018 -43.2475
lclavicle -1.20265e-013 5.56597e-015
lhumerus -57.9758 -26.3898 97.7182
lradius 61.0718
lwrist 16.1168
lhand -9.83853 28.7396
lfingers 7.12502
lthumb 16.1391 58.0876
rfemur -14.5865 23.7448 8.6914
rtibia -2.38542e-014
rfoot -0.390552 5.09812
rtoes 7.53413
lfemur -11.3515 14.6024 -24.4729
ltibia 15.7489
lfoot -18.7529 19.1766
ltoes -21.8465
2591
root 1.72187 18.5145 0.222381 -346.17 57.4938 -359.001
lowerback -10.6022 -3.81046 -3.48901
upperback -4.14484 -4.57731 -1.17326
thorax 1.78353 -2.22295 0.188117
lowerneck -14.7559 -9.6954 -4.02474
upperneck 8.29173 -12.8644 5.3076
head 5.488 -6.03908 1.09531
rclavicle 4.6938e-014 -2.38542e-015
rhumerus 14.9947 2.18756 -33.8015
rradius 124.815
rwrist 149.871
rhand -23.9008 -14.0302
rfingers 7.12502
rthumb 2.5732 -43.9944
lclavicle 4.6938e-014 -2.38542e-015
lhumerus -57.3982 -26.4961 97.9308
lradius 61.4337
lwrist 15.1209
lhand -10.0718 28.5383
lfingers 7.12502
lthumb 15.9145 57.9044
rfemur -14.5751 23.6814 8.66356
rtibia -7.55382e-015
rfoot -0.408748 5.1212
rtoes 7.2061
lfemur -11.3406 14.6229 -24.5182
ltibia 15.7117
lfoot -18.7694 19.1358
ltoes -21.6549
2592
root 1.72329 18.5133 0.218994 -346.024 57.5542 -358.784
lowerback -10.588 -3.86553 -3.72373
upperback -4.13197 -4.6285 -1.12532
thorax 1.81242 -2.24694 0.361061
lowerneck -14.6724 -9.64432 -4.0798
upperneck 8.20329 -12.7736 5.24091
head 5.4413 -6.00521 1.09888
rclavicle -2.19409e-014 -1.27222e-014
rhumerus 14.0184 4.82147 -34.2531
rradius 125.563
rwrist 152.825
rhand -23.4857 -14.8217
rfingers 7.12502
rthumb 2.974 -44.7807
lclavicle -2.19409e-014 -1.27222e-014
lhumerus -56.7945 -26.5888 98.1072
lradius 61.9605
lwrist 14.208
lhand -10.2531 28.9784
lfingers 7.12502
lthumb 15.7399 58.3583
rfemur -14.5097 23.5974 8.56465
rtibia 1.19271e-015
rfoot -0.421772 5.15373
rtoes 7.40552
lfemur -11.3059 14.6868 -24.6439
ltibia 15.6982
lfoot -18.7629 19.0586
ltoes -21.8905
2593
root 1.72016 18.5123 0.214463 -346.191 57.6237 -358.967
lowerback -10.6061 -3.84986 -3.71419
upperback -4.1171 -4.6094 -1.0703
thorax 1.84095 -2.23792 0.413056
lowerneck -14.4429 -9.65881 -4.15855
upperneck 7.96901 -12.7766 5.27498
head 5.338 -6.01614 1.13691
rclavicle 4.31735e-014 -1.19271e-014
rhumerus 12.9064 7.39853 -34.8572
rradius 126.22
rwrist 155.943
rhand -23.3474 -15.2967
rfingers 7.12502
rthumb 3.10758 -45.2538
lclavicle 4.31735e-014 -1.19271e-014
lhumerus -56.1678 -26.4879 98.0607
lradius 62.7833
lwrist 13.1584
lhand -10.2075 29.7565
lfingers 7.12502
lthumb 15.7838 59.133
rfemur -14.5025 23.5567 8.68606
rtibia -3.33958e-014
rfoot -0.398178 5.12279
rtoes 7.41564
lfemur -11.2813 14.5736 -24.5267
ltibia 15.6535
lfoot -18.7506 19.1164
ltoes -21.9841
2594
root 1.71423 18.5129 0.209457 -346.263 57.7111 -359.093
lowerback -10.6476 -3.8293 -3.73772
upperback -4.12586 -4.57836 -1.0341
thorax 1.85806 -2.22197 0.464931
lowerneck -14.1807 -9.68782 -4.25068
upperneck 7.73439 -12.7982 5.3071
head 5.23103 -6.03729 1.17592
rclavicle -1.27346e-014 2.54444e-014
rhumerus 11.8863 9.92877 -35.5484
rradius 126.608
rwrist 159.169
rhand -23.2077 -15.9806
rfingers 7.12502
rthumb 3.24248 -45.9357
lclavicle -1.27346e-014 2.54444e-014
lhumerus -55.5146 -26.4627 98.0465
lradius 63.3482
lwrist 12.1004
lhand -10.0805 29.4554
lfingers 7.12502
lthumb 15.9062 58.8221
rfemur -14.5375 23.4819 8.7613
rtibia 1.15295e-014
rfoot -0.411258 5.06428
rtoes 7.37959
lfemur -11.3343 14.524 -24.4527
ltibia 15.638
lfoot -18.7295 19.0419
ltoes -21.8113
2595
root 1.71524 18.5124 0.204835 -346.089 57.8108 -358.891
lowerback -10.7591 -3.81162 -3.86695
upperback -4.09179 -4.53307 -1.06835
thorax 1.95936 -2.19978 0.49815
lowerneck -14.1442 -9.68133 -4.22899
upperneck 7.71771 -12.7888 5.26446
head 5.21509 -6.03614 1.16305
rclavicle -4.47638e-014 0
rhumerus 10.8662 12.3435 -36.3538
rradius 126.822
rwrist 162.415
rhand -23.1126 -16.5604
rfingers 7.12502
rthumb 3.33431 -46.5141
lclavicle -4.47638e-014 0
lhumerus -54.7897 -26.7751 98.2155
lradius 63.6179
lwrist 11.149
lhand -10.6162 28.7432
lfingers 7.12502
lthumb 15.3902 58.1503
rfemur -14.4982 23.3519 8.65658
rtibia 4.69132e-014
rfoot -0.407112 5.07266
rtoes 7.59171
lfemur -11.3848 14.6027 -24.5782
ltibia 15.7115
lfoot -18.6072 18.9123
ltoes -22.0822
2596
root 1.71126 18.5134 0.196066 -346.051 58.0141 -358.882
lowerback -10.7969 -3.79871 -3.86379
upperback -4.08697 -4.5129 -1.08544
thorax 1.98263 -2.18983 0.478741
lowerneck -14.1498 -9.66224 -3.97671
upperneck 7.71825 -12.7828 5.04159
head 5.18418 -6.04109 1.05993
rclavicle -5.49143e-015 -9.54166e-015
rhumerus 9.7183 14.7092 -37.3575
rradius 126.962
rwrist 165.777
rhand -23.0542 -16.8427
rfingers 7.12502
rthumb 3.39079 -46.7955
lclavicle -5.49143e-015 -9.54166e-015
lhumerus -54.0354 -27.104 98.3855
lradius 63.9172
lwrist 10.2753
lhand -11.4881 28.4261
lfingers 7.12502
lthumb 14.5502 57.8958
rfemur -14.4987 23.1441 8.67856
rtibia 1.19271e-015
rfoot -0.439965 5.12165
rtoes 7.03695
lfemur -11.4896 14.4356 -24.574
ltibia 15.7756
lfoot -18.6655 18.8553
ltoes -21.9054
2597
root 1.69987 18.5148 0.185177 -346.198 58.2716 -359.087
lowerback -10.7329 -3.80162 -3.78758
upperback -4.09592 -4.52905 -1.06428
thorax 1.93517 -2.19773 0.460901
lowerneck -14.0855 -9.65497 -3.74374
upperneck 7.62714 -12.7929 4.8719
head 5.11901 -6.05382 0.979799
rclavicle 1.64401e-013 6.44062e-014
rhumerus 8.63905 17.1821 -38.4139
rradius 126.978
rwrist 169.361
rhand -22.6594 -17.0425
rfingers 7.12502
rthumb 3.77201 -46.9889
lclavicle 1.64401e-013 6.44062e-014
lhumerus -53.1668 -27.3532 98.4109
lradius 64.1652
lwrist 9.36651
lhand -12.0814 27.7246
lfingers 7.12502
lthumb 13.9786 57.2346
rfemur -14.5142 22.9155 8.83975
rtibia -1.15295e-014
rfoot -0.439036 5.08201
rtoes 6.12714
lfemur -11.5861 13.9835 -24.4299
ltibia 15.7886
lfoot -18.6605 19.0739
ltoes -21.8285
2598
root 1.69759 18.5163 0.178799 -346.364 58.3858 -359.14
lowerback -10.6654 -3.81011 -3.82396
upperback -4.06609 -4.54117 -1.03939
thorax 1.93459 -2.20424 0.508311
lowerneck -13.9828 -9.64985 -3.76588
upperneck 7.63073 -12.7833 4.85018
head 5.10311 -6.05352 0.982094
rclavicle -1.04871e-013 9.54166e-015
rhumerus 7.6456 19.807 -39.5147
rradius 126.821
rwrist 173.038
rhand -21.8727 -17.318
rfingers 7.12502
rthumb 4.53169 -47.2496
lclavicle -1.04871e-013 9.54166e-015
lhumerus -52.1324 -27.2881 98.2785
lradius 64.27
lwrist 7.85845
lhand -12.6376 26.3835
lfingers 7.12502
lthumb 13.4426 55.9297
rfemur -14.3517 22.8354 8.94843
rtibia -6.0033e-014
rfoot -0.47917 5.09529
rtoes 6.00896
lfemur -11.4733 13.9572 -24.3572
ltibia 15.8034
lfoot -18.66 18.9813
ltoes -21.6377
2599
root 1.69825 18.5156 0.176939 -346.309 58.3046 -358.979
lowerback -10.7253 -3.78769 -4.01576
upperback -4.03707 -4.48721 -1.05024
thorax 2.00847 -2.17727 0.605091
lowerneck -13.9503 -9.62517 -3.74575
upperneck 7.7534 -12.7524 4.76865
head 5.12812 -6.04219 0.955932
rclavicle 7.57867e-016 2.38542e-015
rhumerus 6.64225 22.3487 -40.7074
rradius 126.429
rwrist 176.507
rhand -20.7787 -17.5696
rfingers 7.12502
rthumb 5.58803 -47.476
lclavicle 7.57867e-016 2.38542e-015
lhumerus -51.045 -27.2457 98.19
lradius 64.4563
lwrist 6.57345
lhand -13.7912 25.5653
lfingers 7.12502
lthumb 12.3304 55.1817
rfemur -14.2749 22.9056 8.86375
rtibia -1.31198e-014
rfoot -0.474414 5.14095
rtoes 6.28686
lfemur -11.4014 14.1497 -24.4434
ltibia 15.8466
lfoot -18.7111 18.7986
ltoes -21.6999
